<svg xmlns="http://www.w3.org/2000/svg" viewBox="0 0 512 512" role="img" aria-hidden="true">
  <rect width="512" height="512" rx="115" fill="#25D366"/>
  <path fill="#fff" d="M373.5 138.2c-35.7-35.7-83.2-55.4-133.8-55.4-104.3 0-189.2 84.9-189.2 189.2 0 33.3 8.7 65.9 25.2 94.7L60 452l87.2-22.8c27.5 15 58.5 22.9 90.1 22.9h.1c104.3 0 189.2-84.9 189.2-189.2 0-50.6-19.7-98.1-55.4-133.8zm-133.8 290.5h-.1c-28.3 0-56.1-7.6-80.4-22l-5.7-3.4-57.7 15.1 15.4-56.3-3.7-5.9c-15.6-24.8-23.8-53.4-23.8-82.9 0-86.7 70.5-157.2 157.2-157.2 42 0 81.5 16.4 111.1 46.1 29.6 29.6 46 69.1 46 111.1-.1 86.7-70.6 157.2-157.3 157.2zm86.3-117.8c-4.7-2.4-28.1-13.9-32.5-15.5-4.3-1.6-7.5-2.4-10.6 2.4-3.1 4.7-12 15.5-14.7 18.7-2.7 3.1-5.4 3.5-10.1 1.2-4.7-2.4-19.8-7.3-37.7-23.2-13.9-12.4-23.3-27.7-26-32.4-2.7-4.7-.3-7.2 2-9.5 2.1-2.1 4.7-5.4 7.1-8.1 2.4-2.7 3.1-4.7 4.7-7.8 1.6-3.1.8-5.9-.4-8.3-1.2-2.4-10.6-25.5-14.5-34.9-3.8-9.2-7.7-8-10.6-8.1-2.7-.1-5.9-.1-9.1-.1s-8.3 1.2-12.7 5.9c-4.3 4.7-16.5 16.1-16.5 39.3 0 23.2 16.9 45.6 19.2 48.8 2.4 3.1 33.2 50.7 80.4 71.1 11.2 4.8 20 7.7 26.8 9.9 11.3 3.6 21.5 3.1 29.6 1.9 9-1.3 28.1-11.5 32.1-22.6 3.9-11.1 3.9-20.6 2.7-22.6-1.1-2-4.3-3.1-9-5.5z"/>
</svg>
